<?xml version="1.0" standalone="no"?>
<!DOCTYPE svg PUBLIC "-//W3C//DTD SVG 20010904//EN"
 "http://www.w3.org/TR/2001/REC-SVG-20010904/DTD/svg10.dtd">
<svg version="1.0" xmlns="http://www.w3.org/2000/svg"
 width="594.000000pt" height="420.000000pt" viewBox="0 0 594.000000 420.000000"
 preserveAspectRatio="xMidYMid meet">

<g transform="translate(0.000000,420.000000) scale(0.100000,-0.100000)"
fill="#000000" stroke="none">
<path d="M2044 4181 c-35 -21 -42 -29 -179 -214 -52 -71 -92 -134 -89 -139 4
-6 3 -8 -3 -5 -5 3 -20 -7 -31 -23 -24 -32 -28 -45 -10 -34 7 4 8 3 4 -5 -4
-6 -11 -9 -16 -6 -5 3 -17 -7 -26 -22 -10 -15 -27 -39 -38 -53 -13 -14 -15
-20 -6 -15 9 6 7 2 -5 -9 -11 -10 -20 -26 -20 -35 0 -9 -5 -16 -12 -16 -31 0
-34 -23 -8 -51 33 -35 53 -70 34 -59 -9 6 -11 3 -6 -8 3 -10 3 -17 -2 -17 -13
0 -9 -29 5 -34 7 -3 19 5 27 17 8 12 24 32 36 44 12 13 17 25 11 28 -6 3 -10
1 -10 -4 0 -6 -4 -11 -8 -11 -11 0 -13 39 -1 45 5 4 6 -2 2 -12 -6 -16 -5 -17
12 -3 11 9 16 10 11 3 -10 -18 9 -16 24 2 10 12 10 15 -1 15 -8 1 -4 6 9 13
13 7 32 26 42 43 11 16 25 38 32 48 7 11 20 27 28 36 39 43 59 74 53 84 -3 6
-3 8 2 4 4 -4 41 39 82 95 41 56 89 117 106 135 l31 32 303 -2 303 -3 6 -555
c6 -708 9 -823 22 -846 10 -17 11 -17 16 6 3 14 7 52 9 85 2 42 4 32 5 -35 2
-60 6 -90 11 -81 11 17 41 7 41 -13 0 -9 7 -12 20 -9 20 5 20 14 20 784 l0
778 -22 21 c-21 19 -33 20 -402 20 -358 0 -383 -1 -412 -19z m-174 -415 c-7
-7 -13 -7 -20 0 -6 6 -3 10 10 10 13 0 16 -4 10 -10z m-210 -196 c0 -5 -5 -10
-11 -10 -5 0 -7 5 -4 10 3 6 8 10 11 10 2 0 4 -4 4 -10z m-2 -110 c-7 -10 -14
-17 -17 -15 -4 4 18 35 25 35 2 0 -1 -9 -8 -20z m1109 -767 c-3 -10 -5 -4 -5
12 0 17 2 24 5 18 2 -7 2 -21 0 -30z"/>
<path d="M3230 4020 l0 -180 858 0 c811 0 862 -1 952 -20 238 -49 413 -200
489 -423 28 -80 32 -108 38 -232 5 -101 3 -118 -22 -190 -63 -190 -218 -348
-414 -424 -83 -32 -194 -47 -265 -37 l-45 7 1 222 c0 178 -3 235 -16 287 -55
209 -207 375 -386 420 -56 14 -847 26 -1053 15 l-148 -7 2 -504 c0 -277 5
-506 9 -509 5 -3 7 -11 5 -18 -7 -17 44 -67 158 -155 27 -20 49 -35 51 -32 1
3 13 -6 27 -20 45 -47 91 -80 101 -74 7 4 8 2 4 -5 -4 -6 0 -14 11 -18 10 -3
29 -17 42 -30 13 -12 28 -20 35 -16 6 3 8 3 4 -2 -10 -11 39 -48 53 -39 7 4 9
3 6 -3 -5 -8 34 -46 47 -44 3 0 24 -18 47 -40 23 -22 48 -38 55 -35 8 3 13 2
11 -2 -1 -4 8 -17 21 -29 12 -13 22 -21 22 -18 0 2 11 -6 25 -19 14 -13 44
-36 67 -52 23 -16 53 -39 66 -51 14 -13 31 -23 38 -23 8 0 14 -4 14 -8 0 -5
19 -22 43 -39 23 -17 56 -43 72 -57 17 -14 36 -24 43 -21 7 3 11 1 7 -4 -6
-11 75 -72 87 -65 5 3 7 1 6 -4 -2 -5 15 -29 36 -52 44 -47 47 -67 34 -169
-10 -78 -43 -147 -79 -168 -15 -9 -32 -26 -39 -37 -7 -14 -9 -15 -6 -3 5 15 3
16 -17 5 -12 -7 -28 -11 -34 -10 -7 2 -13 -1 -13 -5 0 -4 -43 -8 -95 -7 l-95
1 34 -41 c18 -23 42 -41 52 -41 11 0 25 -8 32 -17 7 -10 21 -18 31 -18 21 0
37 -17 42 -44 2 -10 11 -22 19 -26 45 -21 55 -28 55 -41 0 -8 -6 -13 -13 -11
-8 1 -11 -2 -7 -9 5 -8 10 -8 18 0 16 16 50 14 44 -3 -3 -8 2 -16 15 -19 15
-4 18 -11 13 -27 -6 -18 -4 -20 12 -11 10 5 26 12 36 15 10 3 15 10 12 16 -3
5 -1 10 5 10 6 0 8 5 4 12 -4 6 -3 8 4 4 6 -3 13 -2 17 4 3 5 11 10 17 10 6 0
1 -12 -13 -27 l-24 -28 25 22 c14 12 36 23 50 25 14 1 25 8 25 13 0 6 4 16 9
24 7 11 10 11 18 0 5 -9 6 -4 2 14 -6 27 8 38 22 15 5 -7 3 -8 -6 -3 -9 5 -11
4 -6 -4 10 -16 56 28 48 48 -3 8 -1 12 5 8 6 -4 16 0 23 8 7 8 9 15 6 15 -4 0
2 10 14 22 18 20 24 34 18 41 -2 1 5 13 14 26 9 13 14 30 11 39 -4 9 -2 13 4
9 20 -12 38 123 38 285 0 87 4 158 8 158 5 0 5 6 0 13 -4 6 -6 21 -5 33 2 11
-6 32 -18 47 -26 33 -190 160 -207 160 -7 0 -10 3 -9 6 2 3 -52 49 -121 101
-69 52 -177 134 -240 183 -63 48 -119 84 -125 81 -6 -4 -8 -3 -5 3 7 11 -149
136 -170 136 -7 0 -11 2 -9 5 6 5 -22 29 -159 132 -176 132 -172 127 -180 212
-4 40 -5 157 -3 258 l3 185 340 3 c394 4 424 0 484 -58 68 -66 71 -89 71 -518
l0 -374 323 5 c309 4 325 5 409 30 171 49 285 115 413 238 81 78 166 193 215
289 63 124 103 301 103 450 0 282 -98 518 -303 726 -164 167 -351 259 -595
294 -42 6 -417 10 -937 10 l-868 0 0 -180z m1234 -2826 c-12 -9 -12 -13 -2
-17 9 -4 9 -6 1 -6 -19 -1 -26 18 -9 25 8 3 12 13 9 22 -4 15 -3 15 6 2 8 -11
7 -18 -5 -26z m-276 -156 c2 -8 -4 -15 -12 -15 -8 0 -14 9 -13 19 1 21 21 19
25 -4z m77 -28 c-3 -5 -10 -10 -16 -10 -5 0 -9 5 -9 10 0 6 7 10 16 10 8 0 12
-4 9 -10z m89 2 c3 -5 -1 -9 -9 -9 -8 0 -15 4 -15 9 0 4 4 8 9 8 6 0 12 -4 15
-8z m337 -36 c-16 -20 -49 -27 -47 -10 1 7 6 17 11 21 4 4 5 2 1 -4 -4 -8 -1
-13 9 -13 10 0 13 5 9 12 -4 7 -3 8 4 4 7 -4 12 -2 12 5 0 7 3 9 6 6 4 -4 2
-13 -5 -21z m-28 -41 c-3 -9 -8 -14 -10 -11 -3 3 -2 9 2 15 9 16 15 13 8 -4z
m-53 -39 c0 -3 -4 -8 -10 -11 -5 -3 -10 -1 -10 4 0 6 5 11 10 11 6 0 10 -2 10
-4z m-34 -36 c0 -12 -4 -16 -9 -11 -5 5 -6 14 -3 20 10 15 12 14 12 -9z m-105
-33 c-6 -8 -8 -17 -4 -21 4 -4 0 -4 -9 -1 -14 5 -15 10 -5 21 16 17 33 18 18
1z"/>
<path d="M1551 3533 c-12 -16 -25 -33 -31 -40 -15 -18 -12 -27 3 -14 8 6 17 8
21 4 4 -4 4 1 0 11 -6 15 -4 17 6 11 10 -6 12 -4 7 8 -4 10 -2 16 6 14 7 -1
11 3 10 10 -2 8 4 10 14 6 11 -4 12 -8 5 -11 -8 -2 -9 -9 -2 -23 7 -12 7 -19
1 -19 -5 0 -11 8 -13 18 -3 15 -4 15 -10 1 -4 -11 3 -25 19 -40 20 -19 25 -20
20 -6 -4 9 -2 17 3 17 17 0 11 46 -8 63 -24 22 -27 22 -51 -10z"/>
<path d="M1556 3446 c3 -9 11 -16 16 -16 13 0 5 23 -10 28 -7 2 -10 -2 -6 -12z"/>
<path d="M1479 3438 c-11 -8 -10 -9 5 -4 15 5 17 2 13 -13 -3 -13 0 -18 7 -15
16 6 16 32 1 38 -7 2 -18 0 -26 -6z"/>
<path d="M1465 3410 c-3 -5 -1 -10 4 -10 6 0 11 5 11 10 0 6 -2 10 -4 10 -3 0
-8 -4 -11 -10z"/>
<path d="M1609 3393 c-13 -16 -12 -17 4 -4 16 13 21 21 13 21 -2 0 -10 -8 -17
-17z"/>
<path d="M2143 3319 c-13 -4 -23 -11 -23 -14 0 -4 4 -4 9 -1 11 7 8 -21 -4
-31 -4 -4 -5 -2 -1 5 10 17 -9 15 -25 -4 -10 -13 -10 -17 2 -26 11 -8 11 -9
-3 -5 -17 6 -42 -15 -31 -26 5 -6 9 -30 12 -79 1 -10 8 -18 16 -18 8 0 21 -15
29 -34 11 -25 20 -34 38 -33 12 0 31 -3 40 -7 11 -5 18 -2 21 11 2 11 3 9 2
-4 -1 -13 2 -23 6 -23 5 0 9 -8 9 -17 0 -10 5 -25 10 -33 7 -10 10 10 9 65 0
50 -3 73 -8 60 -5 -12 -8 25 -7 87 1 70 -3 111 -11 119 -15 15 -62 20 -90 8z"/>
<path d="M1409 3263 c-13 -16 -12 -17 4 -4 9 7 17 15 17 17 0 8 -8 3 -21 -13z"/>
<path d="M2049 3204 c-1 -5 0 -13 1 -19 1 -5 2 -25 1 -43 0 -19 4 -30 9 -27
11 7 8 80 -3 91 -4 4 -8 3 -8 -2z"/>
<path d="M2012 3141 c4 -13 18 -16 19 -4 0 4 -5 9 -11 12 -7 2 -11 -2 -8 -8z"/>
<path d="M1977 3107 c-3 -8 1 -14 8 -14 7 0 11 6 8 14 -3 7 -6 13 -8 13 -2 0
-5 -6 -8 -13z"/>
<path d="M1385 3101 c-3 -5 -2 -12 3 -15 5 -3 9 1 9 9 0 17 -3 19 -12 6z"/>
<path d="M1940 3059 c0 -5 5 -7 10 -4 6 3 10 8 10 11 0 2 -4 4 -10 4 -5 0 -10
-5 -10 -11z"/>
<path d="M2110 2940 c0 -5 7 -7 15 -4 11 5 13 2 8 -12 -6 -16 -5 -17 9 -4 11
11 12 17 4 22 -16 11 -36 10 -36 -2z"/>
<path d="M1937 2899 c7 -7 15 -10 18 -7 3 3 -2 9 -12 12 -14 6 -15 5 -6 -5z"/>
<path d="M2120 2890 c-11 -7 -11 -10 -2 -10 7 0 10 -4 7 -10 -3 -6 1 -7 10 -3
12 4 13 8 4 13 -8 6 -6 9 7 13 12 3 13 5 4 6 -8 0 -22 -4 -30 -9z"/>
<path d="M2126 2833 c-6 -14 -5 -15 5 -6 7 7 10 15 7 18 -3 3 -9 -2 -12 -12z"/>
<path d="M2646 2632 c-2 -4 10 -9 27 -9 26 -2 28 0 12 7 -26 11 -33 12 -39 2z"/>
<path d="M2850 2554 c0 -9 5 -14 12 -12 18 6 21 28 4 28 -9 0 -16 -7 -16 -16z"/>
<path d="M2819 2503 c-13 -16 -12 -17 4 -4 16 13 21 21 13 21 -2 0 -10 -8 -17
-17z"/>
<path d="M5160 1936 c-91 -23 -171 -44 -178 -47 -8 -3 46 -61 134 -144 361
-343 396 -386 439 -554 18 -71 21 -218 6 -294 -7 -31 -9 -63 -5 -70 4 -6 4 -9
-1 -5 -5 5 -19 -20 -33 -55 -29 -72 -64 -130 -100 -169 -14 -16 -22 -28 -17
-28 5 0 -1 -7 -13 -16 -12 -8 -19 -20 -16 -26 4 -6 2 -8 -4 -5 -5 4 -35 -13
-65 -38 -31 -25 -58 -45 -62 -45 -10 0 -75 -54 -75 -62 0 -4 8 -5 18 -1 13 5
14 3 6 -6 -9 -10 -17 -10 -33 -2 -12 7 -21 8 -21 3 0 -5 -7 -9 -16 -9 -14 0
-14 2 2 15 18 14 18 14 1 8 -10 -3 -23 -6 -28 -6 -6 0 -8 -4 -5 -8 3 -5 -1 -9
-9 -9 -8 0 -11 5 -8 10 3 6 2 7 -4 4 -5 -3 -22 -8 -37 -11 -39 -7 -41 -12 -17
-33 12 -9 21 -25 21 -35 0 -11 7 -18 18 -18 9 0 23 -9 29 -19 7 -11 23 -21 35
-23 13 -2 27 -13 33 -25 5 -13 13 -23 16 -23 3 0 21 -13 39 -29 36 -31 33 -54
-6 -47 -13 3 -24 0 -24 -5 0 -5 10 -9 22 -9 16 0 19 -3 11 -11 -9 -9 -8 -15 0
-24 10 -10 17 -10 40 1 15 8 27 12 27 9 0 -3 9 -1 20 5 11 6 20 15 20 21 0 6
-7 4 -15 -5 -8 -8 -24 -13 -35 -11 -11 2 -20 0 -20 -6 0 -5 -7 -9 -15 -9 -8 0
-15 5 -15 11 0 5 4 7 10 4 5 -3 7 0 4 9 -4 11 0 13 18 10 21 -4 21 -4 3 5 -15
7 -16 10 -5 10 9 1 21 -4 28 -11 9 -9 15 -9 23 -1 13 13 42 6 33 -8 -3 -5 6
-4 20 2 15 7 22 17 18 23 -4 6 -7 25 -7 43 -1 26 2 30 13 20 9 -7 10 -13 3
-15 -6 -2 -11 -8 -11 -13 0 -6 5 -7 12 -3 8 5 9 2 5 -9 -9 -24 -1 -21 30 11
30 31 63 47 63 32 0 -6 -7 -10 -15 -10 -8 0 -15 -4 -15 -10 0 -5 -6 -10 -14
-10 -8 0 -17 -7 -20 -16 -3 -8 21 4 54 27 55 39 65 50 61 72 -1 5 3 6 9 2 6
-3 7 -12 4 -18 -4 -7 6 -1 21 13 49 43 76 70 70 70 -4 0 7 12 24 26 17 14 28
31 24 36 -3 6 -1 8 5 5 11 -7 85 89 85 110 0 7 4 13 8 13 7 0 48 78 84 163 9
21 14 45 11 53 -3 8 -2 13 3 10 14 -9 42 142 48 254 9 178 -31 364 -110 510
-67 124 -102 168 -285 353 -126 126 -140 137 -172 136 -19 -1 -109 -20 -200
-43z m550 -1530 c0 -2 -7 -7 -16 -10 -8 -3 -12 -2 -9 4 6 10 25 14 25 6z
m-130 -130 c0 -3 -4 -8 -10 -11 -5 -3 -10 -1 -10 4 0 6 5 11 10 11 6 0 10 -2
10 -4z m-150 -91 c0 -11 -29 -11 -33 -1 -4 10 1 12 14 9 10 -3 19 -7 19 -8z
m-110 -36 c0 -14 -17 -10 -23 5 -4 10 -1 13 9 9 7 -3 14 -9 14 -14z m40 -31
c0 -13 -23 -5 -28 10 -2 7 2 10 12 6 9 -3 16 -11 16 -16z"/>
<path d="M3231 1863 c-1 -12 5 -24 12 -26 10 -4 10 -6 0 -6 -10 -1 -12 -34
-11 -138 2 -117 3 -123 5 -43 2 52 9 99 15 105 7 7 9 -19 4 -92 -5 -69 -3
-103 4 -103 6 0 10 31 10 80 0 63 3 80 14 80 10 0 16 -13 19 -37 l4 -38 1 37
2 37 25 -25 c14 -14 25 -31 25 -39 0 -24 69 -19 97 7 13 12 23 17 23 12 0 -5
-9 -15 -20 -22 -27 -16 -25 -36 5 -67 26 -25 54 -33 56 -15 1 6 2 15 3 20 0 6
4 10 9 10 4 0 12 0 17 0 6 0 10 -8 10 -17 0 -14 -2 -15 -9 -4 -7 11 -11 10
-20 -7 -17 -31 -14 -45 9 -39 10 3 21 0 24 -7 2 -6 5 12 5 40 1 35 -4 56 -14
64 -9 7 -12 16 -7 19 5 3 -4 16 -20 29 -15 13 -28 19 -28 13 0 -6 5 -11 10
-11 5 0 9 -6 7 -12 -1 -7 4 -12 11 -10 8 1 11 -1 8 -6 -3 -5 -20 -9 -38 -10
-25 -1 -29 1 -16 9 10 5 14 17 11 29 -3 11 -10 17 -15 13 -6 -3 -8 0 -6 8 5
15 -28 49 -48 49 -7 0 -16 -4 -19 -10 -3 -5 -11 -10 -16 -10 -6 0 -3 7 5 16
21 20 10 40 -12 22 -9 -8 -13 -8 -9 -1 9 14 -2 45 -14 37 -5 -3 -17 0 -26 6
-16 10 -16 11 2 5 13 -4 17 -3 10 4 -11 10 -30 14 -55 12 -12 -1 -11 -5 5 -18
18 -14 18 -15 2 -9 -10 3 -21 6 -23 6 -11 0 -2 24 14 37 9 8 12 12 5 9 -6 -4
-15 -1 -18 5 -4 5 -13 8 -20 5 -8 -3 -16 0 -19 7 -2 7 -5 2 -5 -10z m224 -142
c3 -5 2 -12 -3 -15 -5 -3 -9 1 -9 9 0 17 3 19 12 6z m-60 -11 c3 -5 1 -10 -4
-10 -6 0 -11 5 -11 10 0 6 2 10 4 10 3 0 8 -4 11 -10z"/>
<path d="M3320 1559 c0 -51 4 -78 10 -74 6 3 10 40 10 81 0 43 -4 74 -10 74
-6 0 -10 -34 -10 -81z"/>
<path d="M3547 1443 c8 -115 21 -138 18 -33 -1 52 -7 96 -13 98 -6 2 -8 -21
-5 -65z"/>
<path d="M3523 1440 c0 -36 2 -50 4 -32 2 17 2 47 0 65 -2 17 -4 3 -4 -33z"/>
<path d="M3547 1119 c7 -7 15 -10 18 -7 3 3 -2 9 -12 12 -14 6 -15 5 -6 -5z"/>
<path d="M4000 1010 c0 -12 18 -15 68 -11 15 1 15 3 2 11 -20 13 -70 13 -70 0z"/>
<path d="M4320 774 c0 -15 34 -30 56 -26 29 5 32 22 4 22 -11 0 -20 -5 -20
-11 0 -5 -5 -7 -10 -4 -6 4 -8 11 -5 16 4 5 -1 9 -9 9 -9 0 -16 -3 -16 -6z"/>
<path d="M4300 746 c0 -2 7 -7 16 -10 8 -3 12 -2 9 4 -6 10 -25 14 -25 6z"/>
<path d="M5155 399 c-11 -17 1 -21 15 -4 8 9 8 15 2 15 -6 0 -14 -5 -17 -11z"/>
<path d="M4936 341 c-3 -5 1 -11 9 -15 9 -3 15 0 15 9 0 16 -16 20 -24 6z"/>
<path d="M4888 283 c7 -3 16 -2 19 1 4 3 -2 6 -13 5 -11 0 -14 -3 -6 -6z"/>
<path d="M5125 131 c-3 -6 -16 -11 -28 -11 -22 -1 -22 -1 -2 -16 11 -8 21 -11
23 -5 2 5 12 6 23 4 16 -5 20 -2 18 12 -5 22 -24 31 -34 16z"/>
<path d="M5145 49 c-12 -19 5 -23 22 -6 16 16 16 17 1 17 -9 0 -20 -5 -23 -11z"/>
</g>
</svg>
